<svg id="svg" version="1.1" xmlns="http://www.w3.org/2000/svg" xmlns:xlink="http://www.w3.org/1999/xlink" width="400" height="200" viewBox="0, 0, 400,200"><g id="svgg"><path id="path0" d="M142.600 45.100 L 142.600 45.600 140.600 45.600 L 138.600 45.600 138.600 46.100 C 138.600 46.589,138.567 46.600,137.100 46.600 C 135.633 46.600,135.600 46.611,135.600 47.100 C 135.600 47.589,135.567 47.600,134.100 47.600 C 132.633 47.600,132.600 47.611,132.600 48.100 C 132.600 48.567,132.533 48.600,131.600 48.600 C 130.667 48.600,130.600 48.633,130.600 49.100 C 130.600 49.567,130.533 49.600,129.600 49.600 C 128.667 49.600,128.600 49.633,128.600 50.100 C 128.600 50.567,128.533 50.600,127.600 50.600 C 126.667 50.600,126.600 50.633,126.600 51.100 C 126.600 51.500,126.500 51.600,126.100 51.600 C 125.700 51.600,125.600 51.700,125.600 52.100 C 125.600 52.567,125.533 52.600,124.600 52.600 C 123.667 52.600,123.600 52.633,123.600 53.100 C 123.600 53.500,123.500 53.600,123.100 53.600 C 122.700 53.600,122.600 53.700,122.600 54.100 C 122.600 54.500,122.500 54.600,122.100 54.600 C 121.700 54.600,121.600 54.700,121.600 55.100 C 121.600 55.500,121.500 55.600,121.100 55.600 C 120.700 55.600,120.600 55.700,120.600 56.100 C 120.600 56.500,120.500 56.600,120.100 56.600 C 119.700 56.600,119.600 56.700,119.600 57.100 C 119.600 57.500,119.500 57.600,119.100 57.600 C 118.700 57.600,118.600 57.700,118.600 58.100 C 118.600 58.500,118.500 58.600,118.100 58.600 C 117.700 58.600,117.600 58.700,117.600 59.100 C 117.600 59.500,117.500 59.600,117.100 59.600 C 116.633 59.600,116.600 59.667,116.600 60.600 C 116.600 61.533,116.567 61.600,116.100 61.600 C 115.700 61.600,115.600 61.700,115.600 62.100 C 115.600 62.500,115.500 62.600,115.100 62.600 C 114.633 62.600,114.600 62.667,114.600 63.600 C 114.600 64.533,114.567 64.600,114.100 64.600 C 113.633 64.600,113.600 64.667,113.600 65.600 C 113.600 66.533,113.567 66.600,113.100 66.600 C 112.633 66.600,112.600 66.667,112.600 67.600 C 112.600 68.533,112.567 68.600,112.100 68.600 C 111.611 68.600,111.600 68.633,111.600 70.100 C 111.600 71.567,111.589 71.600,111.100 71.600 C 110.611 71.600,110.600 71.633,110.600 73.100 C 110.600 74.567,110.589 74.600,110.100 74.600 L 109.600 74.600 109.600 76.600 L 109.600 78.600 109.100 78.600 L 108.600 78.600 108.600 82.100 L 108.600 85.600 108.100 85.600 L 107.600 85.600 107.600 94.000 L 107.600 102.400 108.100 102.400 L 108.600 102.400 108.600 105.900 L 108.600 109.400 109.100 109.400 L 109.600 109.400 109.600 111.400 L 109.600 113.400 110.100 113.400 C 110.589 113.400,110.600 113.433,110.600 114.900 C 110.600 116.367,110.611 116.400,111.100 116.400 C 111.589 116.400,111.600 116.433,111.600 117.900 C 111.600 119.367,111.611 119.400,112.100 119.400 C 112.567 119.400,112.600 119.467,112.600 120.400 C 112.600 121.333,112.633 121.400,113.100 121.400 C 113.567 121.400,113.600 121.467,113.600 122.400 C 113.600 123.333,113.633 123.400,114.100 123.400 C 114.567 123.400,114.600 123.467,114.600 124.400 C 114.600 125.333,114.633 125.400,115.100 125.400 C 115.567 125.400,115.600 125.467,115.600 126.400 C 115.600 127.333,115.633 127.400,116.100 127.400 C 116.500 127.400,116.600 127.500,116.600 127.900 C 116.600 128.300,116.700 128.400,117.100 128.400 C 117.500 128.400,117.600 128.500,117.600 128.900 C 117.600 129.300,117.700 129.400,118.100 129.400 C 118.500 129.400,118.600 129.500,118.600 129.900 C 118.600 130.300,118.700 130.400,119.100 130.400 C 119.500 130.400,119.600 130.500,119.600 130.900 C 119.600 131.300,119.700 131.400,120.100 131.400 C 120.500 131.400,120.600 131.500,120.600 131.900 C 120.600 132.300,120.700 132.400,121.100 132.400 C 121.500 132.400,121.600 132.500,121.600 132.900 C 121.600 133.300,121.700 133.400,122.100 133.400 C 122.500 133.400,122.600 133.500,122.600 133.900 C 122.600 134.300,122.700 134.400,123.100 134.400 C 123.500 134.400,123.600 134.500,123.600 134.900 C 123.600 135.300,123.700 135.400,124.100 135.400 C 124.500 135.400,124.600 135.500,124.600 135.900 C 124.600 136.367,124.667 136.400,125.600 136.400 C 126.533 136.400,126.600 136.433,126.600 136.900 C 126.600 137.300,126.700 137.400,127.100 137.400 C 127.500 137.400,127.600 137.500,127.600 137.900 C 127.600 138.367,127.667 138.400,128.600 138.400 C 129.533 138.400,129.600 138.433,129.600 138.900 C 129.600 139.367,129.667 139.400,130.600 139.400 C 131.533 139.400,131.600 139.433,131.600 139.900 C 131.600 140.367,131.667 140.400,132.600 140.400 C 133.533 140.400,133.600 140.433,133.600 140.900 C 133.600 141.389,133.633 141.400,135.100 141.400 C 136.567 141.400,136.600 141.411,136.600 141.900 C 136.600 142.389,136.633 142.400,138.100 142.400 C 139.567 142.400,139.600 142.411,139.600 142.900 L 139.600 143.400 143.600 143.400 L 147.600 143.400 147.600 143.900 L 147.600 144.400 153.500 144.400 L 159.400 144.400 159.400 143.900 L 159.400 143.400 162.900 143.400 L 166.400 143.400 166.400 142.900 C 166.400 142.411,166.433 142.400,167.900 142.400 C 169.367 142.400,169.400 142.389,169.400 141.900 C 169.400 141.411,169.433 141.400,170.900 141.400 C 172.367 141.400,172.400 141.389,172.400 140.900 C 172.400 140.411,172.433 140.400,173.900 140.400 C 175.367 140.400,175.400 140.389,175.400 139.900 C 175.400 139.433,175.467 139.400,176.400 139.400 C 177.333 139.400,177.400 139.367,177.400 138.900 C 177.400 138.500,177.500 138.400,177.900 138.400 C 178.300 138.400,178.400 138.300,178.400 137.900 C 178.400 137.433,178.467 137.400,179.400 137.400 C 180.333 137.400,180.400 137.367,180.400 136.900 C 180.400 136.500,180.500 136.400,180.900 136.400 C 181.300 136.400,181.400 136.300,181.400 135.900 C 181.400 135.500,181.500 135.400,181.900 135.400 C 182.300 135.400,182.400 135.300,182.400 134.900 C 182.400 134.433,182.467 134.400,183.400 134.400 C 184.333 134.400,184.400 134.367,184.400 133.900 C 184.400 133.500,184.500 133.400,184.900 133.400 C 185.300 133.400,185.400 133.300,185.400 132.900 C 185.400 132.500,185.500 132.400,185.900 132.400 C 186.300 132.400,186.400 132.300,186.400 131.900 C 186.400 131.500,186.500 131.400,186.900 131.400 C 187.300 131.400,187.400 131.300,187.400 130.900 C 187.400 130.500,187.500 130.400,187.900 130.400 C 188.367 130.400,188.400 130.333,188.400 129.400 C 188.400 128.467,188.433 128.400,188.900 128.400 C 189.300 128.400,189.400 128.300,189.400 127.900 C 189.400 127.500,189.500 127.400,189.900 127.400 C 190.367 127.400,190.400 127.333,190.400 126.400 C 190.400 125.467,190.433 125.400,190.900 125.400 C 191.300 125.400,191.400 125.300,191.400 124.900 C 191.400 124.500,191.500 124.400,191.900 124.400 C 192.367 124.400,192.400 124.333,192.400 123.400 C 192.400 122.467,192.433 122.400,192.900 122.400 C 193.367 122.400,193.400 122.333,193.400 121.400 C 193.400 120.467,193.433 120.400,193.900 120.400 C 194.367 120.400,194.400 120.333,194.400 119.400 C 194.400 118.467,194.433 118.400,194.900 118.400 C 195.389 118.400,195.400 118.367,195.400 116.900 C 195.400 115.433,195.411 115.400,195.900 115.400 L 196.400 115.400 196.400 113.400 L 196.400 111.400 196.900 111.400 L 197.400 111.400 197.400 109.400 L 197.400 107.400 197.900 107.400 L 198.400 107.400 198.400 94.500 L 198.400 81.600 197.900 81.600 L 197.400 81.600 197.400 79.100 L 197.400 76.600 196.900 76.600 L 196.400 76.600 196.400 74.600 L 196.400 72.600 195.900 72.600 C 195.433 72.600,195.400 72.533,195.400 71.600 C 195.400 70.667,195.367 70.600,194.900 70.600 C 194.411 70.600,194.400 70.567,194.400 69.100 C 194.400 67.633,194.389 67.600,193.900 67.600 C 193.433 67.600,193.400 67.533,193.400 66.600 C 193.400 65.667,193.367 65.600,192.900 65.600 C 192.433 65.600,192.400 65.533,192.400 64.600 C 192.400 63.667,192.367 63.600,191.900 63.600 C 191.500 63.600,191.400 63.500,191.400 63.100 C 191.400 62.700,191.300 62.600,190.900 62.600 C 190.433 62.600,190.400 62.533,190.400 61.600 C 190.400 60.667,190.367 60.600,189.900 60.600 C 189.500 60.600,189.400 60.500,189.400 60.100 C 189.400 59.700,189.300 59.600,188.900 59.600 C 188.500 59.600,188.400 59.500,188.400 59.100 C 188.400 58.700,188.300 58.600,187.900 58.600 C 187.500 58.600,187.400 58.500,187.400 58.100 C 187.400 57.700,187.300 57.600,186.900 57.600 C 186.433 57.600,186.400 57.533,186.400 56.600 C 186.400 55.667,186.367 55.600,185.900 55.600 C 185.500 55.600,185.400 55.500,185.400 55.100 C 185.400 54.700,185.300 54.600,184.900 54.600 C 184.500 54.600,184.400 54.500,184.400 54.100 C 184.400 53.633,184.333 53.600,183.400 53.600 C 182.467 53.600,182.400 53.567,182.400 53.100 C 182.400 52.700,182.300 52.600,181.900 52.600 C 181.500 52.600,181.400 52.500,181.400 52.100 C 181.400 51.700,181.300 51.600,180.900 51.600 C 180.500 51.600,180.400 51.500,180.400 51.100 C 180.400 50.633,180.333 50.600,179.400 50.600 C 178.467 50.600,178.400 50.567,178.400 50.100 C 178.400 49.633,178.333 49.600,177.400 49.600 C 176.467 49.600,176.400 49.567,176.400 49.100 C 176.400 48.633,176.333 48.600,175.400 48.600 C 174.467 48.600,174.400 48.567,174.400 48.100 C 174.400 47.611,174.367 47.600,172.900 47.600 C 171.433 47.600,171.400 47.589,171.400 47.100 C 171.400 46.611,171.367 46.600,169.900 46.600 C 168.433 46.600,168.400 46.589,168.400 46.100 L 168.400 45.600 166.400 45.600 L 164.400 45.600 164.400 45.100 L 164.400 44.600 153.500 44.600 L 142.600 44.600 142.600 45.100 M329.600 45.100 L 329.600 45.600 327.100 45.600 L 324.600 45.600 324.600 46.100 C 324.600 46.589,324.567 46.600,323.100 46.600 C 321.633 46.600,321.600 46.611,321.600 47.100 C 321.600 47.567,321.533 47.600,320.600 47.600 C 319.667 47.600,319.600 47.633,319.600 48.100 C 319.600 48.589,319.567 48.600,318.100 48.600 C 316.633 48.600,316.600 48.611,316.600 49.100 C 316.600 49.567,316.533 49.600,315.600 49.600 C 314.667 49.600,314.600 49.633,314.600 50.100 C 314.600 50.500,314.500 50.600,314.100 50.600 C 313.700 50.600,313.600 50.700,313.600 51.100 C 313.600 51.567,313.533 51.600,312.600 51.600 C 311.667 51.600,311.600 51.633,311.600 52.100 C 311.600 52.500,311.500 52.600,311.100 52.600 C 310.700 52.600,310.600 52.700,310.600 53.100 C 310.600 53.500,310.500 53.600,310.100 53.600 C 309.700 53.600,309.600 53.700,309.600 54.100 C 309.600 54.500,309.500 54.600,309.100 54.600 C 308.700 54.600,308.600 54.700,308.600 55.100 C 308.600 55.567,308.533 55.600,307.600 55.600 L 306.600 55.600 306.600 56.600 C 306.600 57.533,306.567 57.600,306.100 57.600 C 305.700 57.600,305.600 57.700,305.600 58.100 C 305.600 58.500,305.500 58.600,305.100 58.600 C 304.700 58.600,304.600 58.700,304.600 59.100 C 304.600 59.500,304.500 59.600,304.100 59.600 C 303.700 59.600,303.600 59.700,303.600 60.100 C 303.600 60.500,303.500 60.600,303.100 60.600 C 302.633 60.600,302.600 60.667,302.600 61.600 C 302.600 62.533,302.567 62.600,302.100 62.600 C 301.633 62.600,301.600 62.667,301.600 63.600 C 301.600 64.533,301.567 64.600,301.100 64.600 C 300.633 64.600,300.600 64.667,300.600 65.600 C 300.600 66.533,300.567 66.600,300.100 66.600 C 299.633 66.600,299.600 66.667,299.600 67.600 C 299.600 68.533,299.567 68.600,299.100 68.600 C 298.633 68.600,298.600 68.667,298.600 69.600 C 298.600 70.533,298.567 70.600,298.100 70.600 C 297.611 70.600,297.600 70.633,297.600 72.100 C 297.600 73.567,297.589 73.600,297.100 73.600 L 296.600 73.600 296.600 75.600 L 296.600 77.600 296.100 77.600 L 295.600 77.600 295.600 80.600 L 295.600 83.600 295.100 83.600 L 294.600 83.600 294.600 94.000 L 294.600 104.400 295.100 104.400 L 295.600 104.400 295.600 107.400 L 295.600 110.400 296.100 110.400 L 296.600 110.400 296.600 112.400 L 296.600 114.400 297.100 114.400 C 297.589 114.400,297.600 114.433,297.600 115.900 C 297.600 117.367,297.611 117.400,298.100 117.400 C 298.589 117.400,298.600 117.433,298.600 118.900 C 298.600 120.367,298.611 120.400,299.100 120.400 C 299.567 120.400,299.600 120.467,299.600 121.400 C 299.600 122.333,299.633 122.400,300.100 122.400 C 300.567 122.400,300.600 122.467,300.600 123.400 C 300.600 124.333,300.633 124.400,301.100 124.400 C 301.500 124.400,301.600 124.500,301.600 124.900 C 301.600 125.300,301.700 125.400,302.100 125.400 C 302.567 125.400,302.600 125.467,302.600 126.400 C 302.600 127.333,302.633 127.400,303.100 127.400 C 303.500 127.400,303.600 127.500,303.600 127.900 C 303.600 128.300,303.700 128.400,304.100 128.400 C 304.500 128.400,304.600 128.500,304.600 128.900 C 304.600 129.300,304.700 129.400,305.100 129.400 C 305.567 129.400,305.600 129.467,305.600 130.400 C 305.600 131.333,305.633 131.400,306.100 131.400 C 306.500 131.400,306.600 131.500,306.600 131.900 C 306.600 132.300,306.700 132.400,307.100 132.400 C 307.500 132.400,307.600 132.500,307.600 132.900 C 307.600 133.300,307.700 133.400,308.100 133.400 C 308.500 133.400,308.600 133.500,308.600 133.900 C 308.600 134.367,308.667 134.400,309.600 134.400 C 310.533 134.400,310.600 134.433,310.600 134.900 C 310.600 135.300,310.700 135.400,311.100 135.400 C 311.500 135.400,311.600 135.500,311.600 135.900 C 311.600 136.300,311.700 136.400,312.100 136.400 C 312.500 136.400,312.600 136.500,312.600 136.900 C 312.600 137.367,312.667 137.400,313.600 137.400 C 314.533 137.400,314.600 137.433,314.600 137.900 C 314.600 138.300,314.700 138.400,315.100 138.400 C 315.500 138.400,315.600 138.500,315.600 138.900 C 315.600 139.367,315.667 139.400,316.600 139.400 C 317.533 139.400,317.600 139.433,317.600 139.900 C 317.600 140.389,317.633 140.400,319.100 140.400 C 320.567 140.400,320.600 140.411,320.600 140.900 C 320.600 141.389,320.633 141.400,322.100 141.400 C 323.567 141.400,323.600 141.411,323.600 141.900 C 323.600 142.389,323.633 142.400,325.100 142.400 C 326.567 142.400,326.600 142.411,326.600 142.900 L 326.600 143.400 330.600 143.400 L 334.600 143.400 334.600 143.900 L 334.600 144.400 340.000 144.400 L 345.400 144.400 345.400 143.900 L 345.400 143.400 349.400 143.400 L 353.400 143.400 353.400 142.900 C 353.400 142.411,353.433 142.400,354.900 142.400 C 356.367 142.400,356.400 142.389,356.400 141.900 C 356.400 141.411,356.433 141.400,357.900 141.400 C 359.367 141.400,359.400 141.389,359.400 140.900 C 359.400 140.433,359.467 140.400,360.400 140.400 C 361.333 140.400,361.400 140.367,361.400 139.900 C 361.400 139.433,361.467 139.400,362.400 139.400 C 363.333 139.400,363.400 139.367,363.400 138.900 C 363.400 138.433,363.467 138.400,364.400 138.400 C 365.333 138.400,365.400 138.367,365.400 137.900 C 365.400 137.500,365.500 137.400,365.900 137.400 C 366.300 137.400,366.400 137.300,366.400 136.900 C 366.400 136.433,366.467 136.400,367.400 136.400 C 368.333 136.400,368.400 136.367,368.400 135.900 C 368.400 135.500,368.500 135.400,368.900 135.400 C 369.300 135.400,369.400 135.300,369.400 134.900 C 369.400 134.500,369.500 134.400,369.900 134.400 C 370.300 134.400,370.400 134.300,370.400 133.900 C 370.400 133.500,370.500 133.400,370.900 133.400 C 371.300 133.400,371.400 133.300,371.400 132.900 C 371.400 132.500,371.500 132.400,371.900 132.400 C 372.300 132.400,372.400 132.300,372.400 131.900 C 372.400 131.500,372.500 131.400,372.900 131.400 C 373.300 131.400,373.400 131.300,373.400 130.900 C 373.400 130.500,373.500 130.400,373.900 130.400 C 374.300 130.400,374.400 130.300,374.400 129.900 C 374.400 129.500,374.500 129.400,374.900 129.400 C 375.300 129.400,375.400 129.300,375.400 128.900 C 375.400 128.500,375.500 128.400,375.900 128.400 C 376.300 128.400,376.400 128.300,376.400 127.900 C 376.400 127.500,376.500 127.400,376.900 127.400 C 377.367 127.400,377.400 127.333,377.400 126.400 C 377.400 125.467,377.433 125.400,377.900 125.400 C 378.367 125.400,378.400 125.333,378.400 124.400 C 378.400 123.467,378.433 123.400,378.900 123.400 C 379.367 123.400,379.400 123.333,379.400 122.400 C 379.400 121.467,379.433 121.400,379.900 121.400 C 380.367 121.400,380.400 121.333,380.400 120.400 C 380.400 119.467,380.433 119.400,380.900 119.400 C 381.367 119.400,381.400 119.333,381.400 118.400 C 381.400 117.467,381.433 117.400,381.900 117.400 C 382.389 117.400,382.400 117.367,382.400 115.900 C 382.400 114.433,382.411 114.400,382.900 114.400 L 383.400 114.400 383.400 112.400 L 383.400 110.400 383.900 110.400 L 384.400 110.400 384.400 107.900 L 384.400 105.400 384.900 105.400 L 385.400 105.400 385.400 94.000 L 385.400 82.600 384.900 82.600 L 384.400 82.600 384.400 80.100 L 384.400 77.600 383.900 77.600 L 383.400 77.600 383.400 75.600 L 383.400 73.600 382.900 73.600 C 382.411 73.600,382.400 73.567,382.400 72.100 C 382.400 70.633,382.389 70.600,381.900 70.600 C 381.433 70.600,381.400 70.533,381.400 69.600 C 381.400 68.667,381.367 68.600,380.900 68.600 C 380.433 68.600,380.400 68.533,380.400 67.600 C 380.400 66.667,380.367 66.600,379.900 66.600 C 379.433 66.600,379.400 66.533,379.400 65.600 C 379.400 64.667,379.367 64.600,378.900 64.600 C 378.433 64.600,378.400 64.533,378.400 63.600 C 378.400 62.667,378.367 62.600,377.900 62.600 C 377.500 62.600,377.400 62.500,377.400 62.100 C 377.400 61.700,377.300 61.600,376.900 61.600 C 376.433 61.600,376.400 61.533,376.400 60.600 C 376.400 59.667,376.367 59.600,375.900 59.600 C 375.500 59.600,375.400 59.500,375.400 59.100 C 375.400 58.700,375.300 58.600,374.900 58.600 C 374.500 58.600,374.400 58.500,374.400 58.100 C 374.400 57.700,374.300 57.600,373.900 57.600 C 373.500 57.600,373.400 57.500,373.400 57.100 C 373.400 56.700,373.300 56.600,372.900 56.600 C 372.500 56.600,372.400 56.500,372.400 56.100 C 372.400 55.700,372.300 55.600,371.900 55.600 C 371.500 55.600,371.400 55.500,371.400 55.100 C 371.400 54.700,371.300 54.600,370.900 54.600 C 370.500 54.600,370.400 54.500,370.400 54.100 C 370.400 53.700,370.300 53.600,369.900 53.600 C 369.500 53.600,369.400 53.500,369.400 53.100 C 369.400 52.700,369.300 52.600,368.900 52.600 C 368.500 52.600,368.400 52.500,368.400 52.100 C 368.400 51.633,368.333 51.600,367.400 51.600 C 366.467 51.600,366.400 51.567,366.400 51.100 C 366.400 50.700,366.300 50.600,365.900 50.600 C 365.500 50.600,365.400 50.500,365.400 50.100 C 365.400 49.611,365.367 49.600,363.900 49.600 C 362.433 49.600,362.400 49.589,362.400 49.100 C 362.400 48.633,362.333 48.600,361.400 48.600 C 360.467 48.600,360.400 48.567,360.400 48.100 C 360.400 47.633,360.333 47.600,359.400 47.600 C 358.467 47.600,358.400 47.567,358.400 47.100 C 358.400 46.611,358.367 46.600,356.900 46.600 C 355.433 46.600,355.400 46.589,355.400 46.100 L 355.400 45.600 353.400 45.600 L 351.400 45.600 351.400 45.100 L 351.400 44.600 340.500 44.600 L 329.600 44.600 329.600 45.100 M159.600 59.900 C 159.600 60.389,159.633 60.400,161.100 60.400 C 162.567 60.400,162.600 60.411,162.600 60.900 C 162.600 61.389,162.633 61.400,164.100 61.400 C 165.567 61.400,165.600 61.411,165.600 61.900 C 165.600 62.367,165.667 62.400,166.600 62.400 C 167.533 62.400,167.600 62.433,167.600 62.900 C 167.600 63.300,167.700 63.400,168.100 63.400 C 168.500 63.400,168.600 63.500,168.600 63.900 C 168.600 64.367,168.667 64.400,169.600 64.400 C 170.533 64.400,170.600 64.433,170.600 64.900 C 170.600 65.300,170.700 65.400,171.100 65.400 C 171.500 65.400,171.600 65.500,171.600 65.900 C 171.600 66.300,171.700 66.400,172.100 66.400 C 172.567 66.400,172.600 66.467,172.600 67.400 C 172.600 68.333,172.633 68.400,173.100 68.400 C 173.500 68.400,173.600 68.500,173.600 68.900 C 173.600 69.300,173.700 69.400,174.100 69.400 C 174.567 69.400,174.600 69.467,174.600 70.400 C 174.600 71.333,174.633 71.400,175.100 71.400 C 175.500 71.400,175.600 71.500,175.600 71.900 C 175.600 72.300,175.700 72.400,176.100 72.400 C 176.589 72.400,176.600 72.433,176.600 73.900 C 176.600 75.367,176.611 75.400,177.100 75.400 C 177.567 75.400,177.600 75.467,177.600 76.400 C 177.600 77.333,177.633 77.400,178.100 77.400 L 178.600 77.400 178.600 79.400 L 178.600 81.400 179.100 81.400 L 179.600 81.400 179.600 84.900 L 179.600 88.400 180.100 88.400 L 180.600 88.400 180.600 94.500 L 180.600 100.600 180.100 100.600 L 179.600 100.600 179.600 103.600 L 179.600 106.600 179.100 106.600 L 178.600 106.600 178.600 108.600 L 178.600 110.600 178.100 110.600 C 177.611 110.600,177.600 110.633,177.600 112.100 C 177.600 113.567,177.589 113.600,177.100 113.600 C 176.633 113.600,176.600 113.667,176.600 114.600 C 176.600 115.533,176.567 115.600,176.100 115.600 C 175.633 115.600,175.600 115.667,175.600 116.600 C 175.600 117.533,175.567 117.600,175.100 117.600 C 174.700 117.600,174.600 117.700,174.600 118.100 C 174.600 118.500,174.500 118.600,174.100 118.600 C 173.633 118.600,173.600 118.667,173.600 119.600 C 173.600 120.533,173.567 120.600,173.100 120.600 C 172.700 120.600,172.600 120.700,172.600 121.100 C 172.600 121.500,172.500 121.600,172.100 121.600 C 171.700 121.600,171.600 121.700,171.600 122.100 C 171.600 122.500,171.500 122.600,171.100 122.600 C 170.700 122.600,170.600 122.700,170.600 123.100 C 170.600 123.500,170.500 123.600,170.100 123.600 C 169.700 123.600,169.600 123.700,169.600 124.100 C 169.600 124.567,169.533 124.600,168.600 124.600 C 167.667 124.600,167.600 124.633,167.600 125.100 C 167.600 125.500,167.500 125.600,167.100 125.600 C 166.700 125.600,166.600 125.700,166.600 126.100 C 166.600 126.589,166.567 126.600,165.100 126.600 C 163.633 126.600,163.600 126.611,163.600 127.100 C 163.600 127.567,163.533 127.600,162.600 127.600 C 161.667 127.600,161.600 127.633,161.600 128.100 L 161.600 128.600 158.100 128.600 L 154.600 128.600 154.600 129.100 C 154.600 129.841,151.669 129.889,151.564 129.150 C 151.501 128.710,151.437 128.699,148.563 128.645 C 145.700 128.591,145.625 128.578,145.563 128.145 C 145.508 127.759,145.361 127.692,144.450 127.640 C 143.486 127.584,143.400 127.539,143.400 127.090 C 143.400 126.617,143.351 126.600,142.014 126.600 C 140.729 126.600,140.623 126.567,140.564 126.150 C 140.509 125.766,140.361 125.691,139.550 125.639 C 138.692 125.584,138.600 125.531,138.600 125.089 C 138.600 124.704,138.496 124.600,138.114 124.600 C 137.762 124.600,137.610 124.476,137.564 124.150 C 137.523 123.865,137.339 123.677,137.062 123.638 C 136.790 123.599,136.601 123.410,136.562 123.138 C 136.524 122.867,136.335 122.677,136.069 122.639 C 135.806 122.601,135.590 122.386,135.515 122.089 C 135.440 121.788,135.248 121.600,135.018 121.600 C 134.785 121.600,134.596 121.411,134.518 121.100 C 134.439 120.785,134.251 120.600,134.010 120.600 C 133.766 120.600,133.605 120.437,133.564 120.150 C 133.523 119.861,133.339 119.677,133.050 119.636 C 132.712 119.588,132.599 119.439,132.597 119.036 C 132.593 118.121,132.372 117.600,131.991 117.600 C 131.767 117.600,131.603 117.428,131.564 117.150 C 131.523 116.865,131.339 116.677,131.060 116.637 C 130.690 116.585,130.611 116.428,130.560 115.637 C 130.509 114.840,130.433 114.690,130.050 114.636 C 129.650 114.579,129.600 114.457,129.597 113.536 C 129.594 112.117,129.428 111.600,128.977 111.600 C 128.656 111.600,128.600 111.444,128.597 110.550 C 128.594 109.117,128.429 108.600,127.977 108.600 C 127.637 108.600,127.600 108.430,127.598 106.850 C 127.595 104.239,127.452 103.600,126.874 103.600 L 126.400 103.600 126.400 94.000 L 126.400 84.400 126.877 84.400 C 127.498 84.400,127.594 84.008,127.597 81.464 C 127.600 79.506,127.617 79.425,128.050 79.364 C 128.462 79.305,128.505 79.180,128.559 77.863 C 128.612 76.554,128.656 76.420,129.059 76.363 C 129.433 76.310,129.509 76.155,129.561 75.350 C 129.610 74.585,129.693 74.400,129.988 74.400 C 130.374 74.400,130.593 73.881,130.597 72.950 C 130.599 72.543,130.699 72.400,130.981 72.400 C 131.286 72.400,131.390 72.203,131.498 71.412 C 131.610 70.602,131.713 70.412,132.067 70.362 C 132.339 70.323,132.524 70.133,132.564 69.850 C 132.604 69.570,132.766 69.400,132.995 69.400 C 133.284 69.400,133.392 69.187,133.500 68.400 C 133.622 67.515,133.693 67.400,134.119 67.400 C 134.499 67.400,134.600 67.295,134.600 66.900 C 134.600 66.500,134.700 66.400,135.100 66.400 C 135.500 66.400,135.600 66.300,135.600 65.900 C 135.600 65.500,135.700 65.400,136.100 65.400 C 136.500 65.400,136.600 65.300,136.600 64.900 C 136.600 64.441,136.674 64.400,137.496 64.400 C 138.285 64.400,138.407 64.340,138.518 63.900 C 138.608 63.541,138.778 63.400,139.122 63.400 C 139.499 63.400,139.600 63.294,139.600 62.900 C 139.600 62.433,139.667 62.400,140.600 62.400 C 141.529 62.400,141.600 62.365,141.600 61.909 C 141.600 61.438,141.660 61.415,143.050 61.359 C 144.381 61.305,144.505 61.263,144.564 60.850 C 144.624 60.429,144.725 60.400,146.114 60.400 C 147.566 60.400,147.600 60.388,147.600 59.900 L 147.600 59.400 153.600 59.400 L 159.600 59.400 159.600 59.900 M345.600 59.900 L 345.600 60.400 347.600 60.400 L 349.600 60.400 349.600 60.900 C 349.600 61.389,349.633 61.400,351.100 61.400 C 352.567 61.400,352.600 61.411,352.600 61.900 C 352.600 62.367,352.667 62.400,353.600 62.400 C 354.533 62.400,354.600 62.433,354.600 62.900 C 354.600 63.300,354.700 63.400,355.100 63.400 C 355.500 63.400,355.600 63.500,355.600 63.900 C 355.600 64.300,355.700 64.400,356.100 64.400 C 356.500 64.400,356.600 64.500,356.600 64.900 C 356.600 65.300,356.700 65.400,357.100 65.400 C 357.500 65.400,357.600 65.500,357.600 65.900 C 357.600 66.300,357.700 66.400,358.100 66.400 C 358.500 66.400,358.600 66.500,358.600 66.900 C 358.600 67.300,358.700 67.400,359.100 67.400 C 359.500 67.400,359.600 67.500,359.600 67.900 C 359.600 68.300,359.700 68.400,360.100 68.400 C 360.500 68.400,360.600 68.500,360.600 68.900 C 360.600 69.300,360.700 69.400,361.100 69.400 C 361.567 69.400,361.600 69.467,361.600 70.400 C 361.600 71.333,361.633 71.400,362.100 71.400 C 362.567 71.400,362.600 71.467,362.600 72.400 C 362.600 73.333,362.633 73.400,363.100 73.400 C 363.567 73.400,363.600 73.467,363.600 74.400 C 363.600 75.333,363.633 75.400,364.100 75.400 C 364.589 75.400,364.600 75.433,364.600 76.900 C 364.600 78.367,364.611 78.400,365.100 78.400 L 365.600 78.400 365.600 80.400 L 365.600 82.400 366.100 82.400 L 366.600 82.400 366.600 87.400 L 366.600 92.400 367.100 92.400 C 367.592 92.400,367.600 92.427,367.600 94.000 C 367.600 95.573,367.592 95.600,367.100 95.600 L 366.600 95.600 366.600 100.600 L 366.600 105.600 366.100 105.600 L 365.600 105.600 365.600 107.600 L 365.600 109.600 365.100 109.600 C 364.611 109.600,364.600 109.633,364.600 111.100 C 364.600 112.567,364.589 112.600,364.100 112.600 C 363.633 112.600,363.600 112.667,363.600 113.600 C 363.600 114.533,363.567 114.600,363.100 114.600 C 362.633 114.600,362.600 114.667,362.600 115.600 C 362.600 116.533,362.567 116.600,362.100 116.600 C 361.633 116.600,361.600 116.667,361.600 117.600 C 361.600 118.533,361.567 118.600,361.100 118.600 C 360.633 118.600,360.600 118.667,360.600 119.600 C 360.600 120.533,360.567 120.600,360.100 120.600 C 359.700 120.600,359.600 120.700,359.600 121.100 C 359.600 121.500,359.500 121.600,359.100 121.600 C 358.700 121.600,358.600 121.700,358.600 122.100 C 358.600 122.500,358.500 122.600,358.100 122.600 C 357.700 122.600,357.600 122.700,357.600 123.100 C 357.600 123.567,357.533 123.600,356.600 123.600 C 355.667 123.600,355.600 123.633,355.600 124.100 C 355.600 124.500,355.500 124.600,355.100 124.600 C 354.700 124.600,354.600 124.700,354.600 125.100 C 354.600 125.567,354.533 125.600,353.600 125.600 C 352.667 125.600,352.600 125.633,352.600 126.100 C 352.600 126.567,352.533 126.600,351.600 126.600 C 350.667 126.600,350.600 126.633,350.600 127.100 C 350.600 127.589,350.567 127.600,349.100 127.600 C 347.633 127.600,347.600 127.611,347.600 128.100 L 347.600 128.600 344.600 128.600 L 341.600 128.600 341.600 129.100 C 341.600 129.592,341.573 129.600,340.000 129.600 C 338.427 129.600,338.400 129.592,338.400 129.100 L 338.400 128.600 335.400 128.600 L 332.400 128.600 332.400 128.100 C 332.400 127.615,332.359 127.600,331.014 127.600 C 329.729 127.600,329.623 127.567,329.564 127.150 C 329.510 126.768,329.360 126.691,328.569 126.640 C 327.772 126.588,327.621 126.509,327.515 126.090 C 327.408 125.663,327.280 125.600,326.510 125.600 C 325.747 125.600,325.619 125.539,325.564 125.150 C 325.523 124.865,325.339 124.677,325.062 124.638 C 324.790 124.599,324.601 124.410,324.562 124.138 C 324.523 123.861,324.335 123.677,324.050 123.636 C 323.770 123.596,323.555 123.389,323.479 123.086 C 323.392 122.741,323.218 122.600,322.878 122.600 C 322.501 122.600,322.400 122.494,322.400 122.100 C 322.400 121.700,322.300 121.600,321.900 121.600 C 321.500 121.600,321.400 121.500,321.400 121.100 C 321.400 120.735,321.293 120.600,321.004 120.600 C 320.748 120.600,320.563 120.423,320.482 120.100 C 320.406 119.796,320.214 119.600,319.992 119.600 C 319.767 119.600,319.603 119.429,319.564 119.150 C 319.523 118.861,319.339 118.677,319.050 118.636 C 318.686 118.584,318.600 118.445,318.600 117.902 C 318.600 116.974,318.422 116.600,317.979 116.600 C 317.700 116.600,317.599 116.455,317.597 116.050 C 317.593 115.108,317.375 114.600,316.977 114.600 C 316.681 114.600,316.600 114.453,316.600 113.916 C 316.600 112.974,316.424 112.600,315.979 112.600 C 315.650 112.600,315.600 112.444,315.600 111.416 C 315.600 109.975,315.472 109.600,314.979 109.600 C 314.640 109.600,314.600 109.437,314.597 108.050 C 314.594 106.153,314.460 105.600,314.002 105.600 C 313.676 105.600,313.644 105.166,313.567 99.750 C 313.421 89.488,313.581 83.400,313.998 83.400 C 314.410 83.400,314.594 82.555,314.598 80.650 C 314.600 79.563,314.649 79.400,314.974 79.400 C 315.375 79.400,315.594 78.612,315.598 77.150 C 315.600 76.552,315.676 76.400,315.974 76.400 C 316.374 76.400,316.593 75.612,316.598 74.164 C 316.600 73.554,316.677 73.417,317.050 73.364 C 317.433 73.310,317.509 73.160,317.560 72.363 C 317.611 71.572,317.690 71.415,318.060 71.363 C 318.339 71.323,318.523 71.135,318.564 70.850 C 318.604 70.570,318.766 70.400,318.995 70.400 C 319.284 70.400,319.392 70.187,319.500 69.400 C 319.622 68.515,319.693 68.400,320.119 68.400 C 320.499 68.400,320.600 68.295,320.600 67.900 C 320.600 67.500,320.700 67.400,321.100 67.400 C 321.500 67.400,321.600 67.300,321.600 66.900 C 321.600 66.500,321.700 66.400,322.100 66.400 C 322.500 66.400,322.600 66.300,322.600 65.900 C 322.600 65.500,322.700 65.400,323.100 65.400 C 323.500 65.400,323.600 65.300,323.600 64.900 C 323.600 64.441,323.673 64.400,324.500 64.400 C 325.320 64.400,325.400 64.357,325.400 63.913 C 325.400 63.531,325.518 63.413,325.950 63.363 C 326.344 63.318,326.518 63.172,326.564 62.850 C 326.620 62.453,326.744 62.400,327.614 62.400 C 328.532 62.400,328.600 62.366,328.600 61.900 C 328.600 61.414,328.640 61.400,330.000 61.400 C 331.360 61.400,331.400 61.386,331.400 60.900 C 331.400 60.411,331.433 60.400,332.900 60.400 C 334.367 60.400,334.400 60.389,334.400 59.900 L 334.400 59.400 340.000 59.400 L 345.600 59.400 345.600 59.900 " stroke="none" fill="#fcfcfc" fill-rule="evenodd"></path><path id="path1" d="M20.600 46.921 C 20.600 48.083,20.659 48.289,21.088 48.626 C 21.385 48.860,21.600 49.262,21.638 49.655 C 21.685 50.148,21.806 50.315,22.150 50.364 C 22.478 50.411,22.600 50.562,22.600 50.923 C 22.600 51.195,22.825 51.643,23.100 51.918 C 23.375 52.193,23.600 52.639,23.600 52.909 C 23.600 53.299,23.702 53.400,24.100 53.400 C 24.524 53.400,24.600 53.493,24.600 54.010 C 24.600 54.403,24.777 54.784,25.100 55.082 C 25.375 55.337,25.600 55.738,25.600 55.973 C 25.600 56.295,25.723 56.400,26.100 56.400 C 26.536 56.400,26.600 56.488,26.600 57.086 C 26.600 57.736,27.011 58.400,27.414 58.400 C 27.516 58.400,27.600 58.590,27.600 58.821 C 27.600 59.053,27.819 59.415,28.087 59.626 C 28.355 59.836,28.603 60.254,28.637 60.554 C 28.676 60.890,28.873 61.176,29.150 61.297 C 29.398 61.406,29.600 61.663,29.600 61.869 C 29.600 62.074,29.819 62.415,30.088 62.626 C 30.385 62.860,30.600 63.262,30.638 63.655 C 30.685 64.148,30.806 64.315,31.150 64.364 C 31.448 64.406,31.600 64.565,31.600 64.835 C 31.600 65.059,31.819 65.415,32.088 65.626 C 32.385 65.860,32.600 66.262,32.638 66.655 C 32.685 67.148,32.806 67.315,33.150 67.364 C 33.478 67.411,33.600 67.562,33.600 67.923 C 33.600 68.195,33.818 68.637,34.085 68.904 C 34.352 69.170,34.600 69.594,34.635 69.844 C 34.677 70.139,34.859 70.323,35.150 70.364 C 35.502 70.414,35.600 70.558,35.600 71.023 C 35.600 71.402,35.782 71.788,36.100 72.082 C 36.375 72.337,36.600 72.738,36.600 72.973 C 36.600 73.295,36.723 73.400,37.100 73.400 C 37.536 73.400,37.600 73.488,37.600 74.086 C 37.600 74.736,38.011 75.400,38.414 75.400 C 38.516 75.400,38.600 75.590,38.600 75.821 C 38.600 76.053,38.819 76.415,39.087 76.626 C 39.355 76.836,39.603 77.254,39.637 77.554 C 39.676 77.890,39.873 78.176,40.150 78.297 C 40.398 78.406,40.600 78.663,40.600 78.869 C 40.600 79.074,40.819 79.415,41.087 79.626 C 41.355 79.836,41.603 80.254,41.637 80.554 C 41.676 80.890,41.873 81.176,42.150 81.297 C 42.398 81.406,42.600 81.663,42.600 81.869 C 42.600 82.074,42.819 82.415,43.088 82.626 C 43.385 82.860,43.600 83.262,43.638 83.655 C 43.685 84.148,43.806 84.315,44.150 84.364 C 44.448 84.406,44.600 84.565,44.600 84.835 C 44.600 85.059,44.819 85.415,45.088 85.626 C 45.385 85.860,45.600 86.262,45.638 86.655 C 45.685 87.148,45.806 87.315,46.150 87.364 C 46.478 87.411,46.600 87.562,46.600 87.923 C 46.600 88.195,46.825 88.643,47.100 88.918 C 47.375 89.193,47.600 89.639,47.600 89.909 C 47.600 90.299,47.702 90.400,48.100 90.400 C 48.536 90.400,48.600 90.488,48.600 91.086 C 48.600 91.761,49.002 92.381,49.464 92.420 C 49.594 92.431,49.475 92.502,49.200 92.578 C 48.821 92.682,48.685 92.870,48.638 93.353 C 48.600 93.738,48.382 94.143,48.088 94.374 C 47.819 94.585,47.600 94.947,47.600 95.179 C 47.600 95.410,47.516 95.600,47.414 95.600 C 47.011 95.600,46.600 96.264,46.600 96.914 C 46.600 97.512,46.536 97.600,46.100 97.600 C 45.723 97.600,45.600 97.705,45.600 98.027 C 45.600 98.262,45.375 98.663,45.100 98.918 C 44.782 99.212,44.600 99.598,44.600 99.977 C 44.600 100.442,44.502 100.586,44.150 100.636 C 43.806 100.685,43.685 100.852,43.638 101.345 C 43.600 101.738,43.385 102.140,43.088 102.374 C 42.819 102.585,42.600 102.941,42.600 103.165 C 42.600 103.435,42.448 103.594,42.150 103.636 C 41.806 103.685,41.685 103.852,41.638 104.345 C 41.600 104.738,41.385 105.140,41.088 105.374 C 40.819 105.585,40.600 105.926,40.600 106.131 C 40.600 106.337,40.398 106.594,40.150 106.703 C 39.803 106.855,39.686 107.094,39.639 107.750 C 39.584 108.501,39.520 108.600,39.089 108.600 C 38.701 108.600,38.600 108.703,38.600 109.100 C 38.600 109.375,38.516 109.600,38.414 109.600 C 38.014 109.600,37.600 110.261,37.600 110.900 C 37.600 111.445,37.515 111.584,37.150 111.636 C 36.859 111.677,36.677 111.861,36.635 112.156 C 36.600 112.406,36.352 112.830,36.085 113.096 C 35.818 113.363,35.600 113.805,35.600 114.077 C 35.600 114.438,35.478 114.589,35.150 114.636 C 34.806 114.685,34.685 114.852,34.638 115.345 C 34.600 115.738,34.385 116.140,34.088 116.374 C 33.819 116.585,33.600 116.926,33.600 117.131 C 33.600 117.337,33.398 117.594,33.150 117.703 C 32.873 117.824,32.676 118.110,32.637 118.446 C 32.603 118.746,32.355 119.164,32.087 119.374 C 31.819 119.585,31.600 119.947,31.600 120.179 C 31.600 120.410,31.516 120.600,31.414 120.600 C 31.011 120.600,30.600 121.264,30.600 121.914 C 30.600 122.512,30.536 122.600,30.100 122.600 C 29.702 122.600,29.600 122.701,29.600 123.091 C 29.600 123.361,29.375 123.807,29.100 124.082 C 28.825 124.357,28.600 124.805,28.600 125.077 C 28.600 125.438,28.478 125.589,28.150 125.636 C 27.806 125.685,27.685 125.852,27.638 126.345 C 27.600 126.738,27.385 127.140,27.088 127.374 C 26.819 127.585,26.600 127.926,26.600 128.131 C 26.600 128.337,26.398 128.594,26.150 128.703 C 25.873 128.824,25.676 129.110,25.637 129.446 C 25.603 129.746,25.355 130.164,25.087 130.374 C 24.819 130.585,24.600 130.947,24.600 131.179 C 24.600 131.410,24.516 131.600,24.414 131.600 C 24.011 131.600,23.600 132.264,23.600 132.914 C 23.600 133.512,23.536 133.600,23.100 133.600 C 22.723 133.600,22.600 133.705,22.600 134.027 C 22.600 134.262,22.375 134.663,22.100 134.918 C 21.782 135.212,21.600 135.598,21.600 135.977 C 21.600 136.442,21.502 136.586,21.150 136.636 C 20.806 136.685,20.685 136.852,20.638 137.345 C 20.600 137.738,20.385 138.140,20.088 138.374 C 19.819 138.585,19.600 138.941,19.600 139.165 C 19.600 139.435,19.448 139.594,19.150 139.636 C 18.817 139.683,18.683 139.855,18.633 140.300 C 18.597 140.630,18.446 141.035,18.299 141.200 C 18.074 141.452,18.090 141.571,18.398 141.950 L 18.764 142.400 28.082 142.400 L 37.400 142.400 37.400 141.900 C 37.400 141.625,37.484 141.400,37.586 141.400 C 37.989 141.400,38.400 140.736,38.400 140.086 C 38.400 139.488,38.464 139.400,38.900 139.400 C 39.298 139.400,39.400 139.299,39.400 138.909 C 39.400 138.639,39.625 138.193,39.900 137.918 C 40.175 137.643,40.400 137.195,40.400 136.923 C 40.400 136.562,40.522 136.411,40.850 136.364 C 41.194 136.315,41.315 136.148,41.362 135.655 C 41.400 135.262,41.615 134.860,41.912 134.626 C 42.181 134.415,42.400 134.053,42.400 133.821 C 42.400 133.590,42.484 133.400,42.586 133.400 C 42.986 133.400,43.400 132.739,43.400 132.100 C 43.400 131.555,43.485 131.416,43.850 131.364 C 44.141 131.323,44.323 131.139,44.365 130.844 C 44.400 130.594,44.648 130.170,44.915 129.904 C 45.182 129.637,45.400 129.210,45.400 128.957 C 45.400 128.670,45.570 128.420,45.850 128.297 C 46.127 128.176,46.324 127.890,46.363 127.554 C 46.397 127.254,46.645 126.836,46.913 126.626 C 47.181 126.415,47.400 126.053,47.400 125.821 C 47.400 125.590,47.484 125.400,47.586 125.400 C 47.986 125.400,48.400 124.739,48.400 124.100 C 48.400 123.555,48.485 123.416,48.850 123.364 C 49.194 123.315,49.315 123.148,49.362 122.655 C 49.400 122.262,49.615 121.860,49.912 121.626 C 50.181 121.415,50.400 121.074,50.400 120.869 C 50.400 120.663,50.603 120.406,50.850 120.297 C 51.127 120.176,51.324 119.890,51.363 119.554 C 51.397 119.254,51.645 118.836,51.913 118.626 C 52.181 118.415,52.400 118.086,52.400 117.894 C 52.400 117.703,52.625 117.337,52.900 117.082 C 53.218 116.788,53.400 116.402,53.400 116.023 C 53.400 115.558,53.498 115.414,53.850 115.364 C 54.194 115.315,54.315 115.148,54.362 114.655 C 54.400 114.262,54.615 113.860,54.912 113.626 C 55.181 113.415,55.400 113.074,55.400 112.869 C 55.400 112.663,55.602 112.406,55.850 112.297 C 56.197 112.145,56.314 111.906,56.361 111.250 C 56.416 110.499,56.480 110.400,56.911 110.400 C 57.277 110.400,57.400 110.292,57.400 109.973 C 57.400 109.738,57.625 109.337,57.900 109.082 C 58.218 108.788,58.400 108.402,58.400 108.023 C 58.400 107.562,58.499 107.413,58.842 107.364 C 59.117 107.324,59.332 107.112,59.411 106.800 L 59.539 106.300 59.619 106.800 C 59.673 107.135,59.849 107.321,60.150 107.364 C 60.515 107.416,60.600 107.555,60.600 108.100 C 60.600 108.739,61.014 109.400,61.414 109.400 C 61.516 109.400,61.600 109.590,61.600 109.821 C 61.600 110.053,61.819 110.415,62.088 110.626 C 62.385 110.860,62.600 111.262,62.638 111.655 C 62.685 112.148,62.806 112.315,63.150 112.364 C 63.502 112.414,63.600 112.558,63.600 113.023 C 63.600 113.402,63.782 113.788,64.100 114.082 C 64.375 114.337,64.600 114.703,64.600 114.894 C 64.600 115.086,64.819 115.415,65.087 115.626 C 65.355 115.836,65.603 116.254,65.637 116.554 C 65.676 116.890,65.873 117.176,66.150 117.297 C 66.430 117.420,66.600 117.670,66.600 117.957 C 66.600 118.210,66.825 118.643,67.100 118.918 C 67.375 119.193,67.600 119.639,67.600 119.909 C 67.600 120.296,67.703 120.400,68.089 120.400 C 68.520 120.400,68.584 120.499,68.639 121.250 C 68.686 121.906,68.803 122.145,69.150 122.297 C 69.398 122.406,69.600 122.663,69.600 122.869 C 69.600 123.074,69.819 123.415,70.088 123.626 C 70.385 123.860,70.600 124.262,70.638 124.655 C 70.685 125.148,70.806 125.315,71.150 125.364 C 71.515 125.416,71.600 125.555,71.600 126.100 C 71.600 126.739,72.014 127.400,72.414 127.400 C 72.516 127.400,72.600 127.590,72.600 127.821 C 72.600 128.053,72.819 128.415,73.088 128.626 C 73.385 128.860,73.600 129.262,73.638 129.655 C 73.685 130.148,73.806 130.315,74.150 130.364 C 74.478 130.411,74.600 130.562,74.600 130.923 C 74.600 131.195,74.825 131.643,75.100 131.918 C 75.375 132.193,75.600 132.639,75.600 132.909 C 75.600 133.296,75.703 133.400,76.089 133.400 C 76.520 133.400,76.584 133.499,76.639 134.250 C 76.686 134.906,76.803 135.145,77.150 135.297 C 77.398 135.406,77.600 135.663,77.600 135.869 C 77.600 136.074,77.819 136.415,78.088 136.626 C 78.385 136.860,78.600 137.262,78.638 137.655 C 78.685 138.148,78.806 138.315,79.150 138.364 C 79.515 138.416,79.600 138.555,79.600 139.100 C 79.600 139.739,80.014 140.400,80.414 140.400 C 80.516 140.400,80.600 140.573,80.600 140.785 C 80.600 140.996,80.878 141.447,81.217 141.787 L 81.835 142.404 91.567 142.352 L 101.300 142.300 101.300 141.500 C 101.300 140.823,101.231 140.690,100.850 140.636 C 100.552 140.594,100.400 140.435,100.400 140.165 C 100.400 139.941,100.181 139.585,99.912 139.374 C 99.615 139.140,99.400 138.738,99.362 138.345 C 99.315 137.852,99.194 137.685,98.850 137.636 C 98.498 137.586,98.400 137.442,98.400 136.977 C 98.400 136.598,98.218 136.212,97.900 135.918 C 97.625 135.663,97.400 135.262,97.400 135.027 C 97.400 134.708,97.277 134.600,96.911 134.600 C 96.480 134.600,96.416 134.501,96.361 133.750 C 96.314 133.094,96.197 132.855,95.850 132.703 C 95.603 132.594,95.400 132.337,95.400 132.131 C 95.400 131.926,95.181 131.585,94.912 131.374 C 94.615 131.140,94.400 130.738,94.362 130.345 C 94.315 129.852,94.194 129.685,93.850 129.636 C 93.522 129.589,93.400 129.438,93.400 129.077 C 93.400 128.805,93.182 128.363,92.915 128.096 C 92.648 127.830,92.400 127.406,92.365 127.156 C 92.323 126.861,92.141 126.677,91.850 126.636 C 91.485 126.584,91.400 126.445,91.400 125.900 C 91.400 125.261,90.986 124.600,90.586 124.600 C 90.484 124.600,90.400 124.375,90.400 124.100 C 90.400 123.703,90.299 123.600,89.911 123.600 C 89.480 123.600,89.416 123.501,89.361 122.750 C 89.314 122.094,89.197 121.855,88.850 121.703 C 88.603 121.594,88.400 121.337,88.400 121.131 C 88.400 120.926,88.181 120.585,87.912 120.374 C 87.615 120.140,87.400 119.738,87.362 119.345 C 87.315 118.852,87.194 118.685,86.850 118.636 C 86.522 118.589,86.400 118.438,86.400 118.077 C 86.400 117.805,86.182 117.363,85.915 117.096 C 85.648 116.830,85.400 116.406,85.365 116.156 C 85.323 115.861,85.141 115.677,84.850 115.636 C 84.485 115.584,84.400 115.445,84.400 114.900 C 84.400 114.261,83.986 113.600,83.586 113.600 C 83.484 113.600,83.400 113.410,83.400 113.179 C 83.400 112.947,83.181 112.585,82.913 112.374 C 82.645 112.164,82.397 111.746,82.363 111.446 C 82.324 111.110,82.127 110.824,81.850 110.703 C 81.603 110.594,81.400 110.337,81.400 110.131 C 81.400 109.926,81.181 109.585,80.912 109.374 C 80.615 109.140,80.400 108.738,80.362 108.345 C 80.315 107.852,80.194 107.685,79.850 107.636 C 79.522 107.589,79.400 107.438,79.400 107.077 C 79.400 106.805,79.175 106.357,78.900 106.082 C 78.625 105.807,78.400 105.361,78.400 105.091 C 78.400 104.701,78.298 104.600,77.900 104.600 C 77.464 104.600,77.400 104.512,77.400 103.914 C 77.400 103.264,76.989 102.600,76.586 102.600 C 76.484 102.600,76.400 102.410,76.400 102.179 C 76.400 101.947,76.181 101.585,75.913 101.374 C 75.645 101.164,75.397 100.746,75.363 100.446 C 75.324 100.110,75.127 99.824,74.850 99.703 C 74.603 99.594,74.400 99.337,74.400 99.131 C 74.400 98.926,74.181 98.585,73.912 98.374 C 73.615 98.140,73.400 97.738,73.362 97.345 C 73.315 96.852,73.194 96.685,72.850 96.636 C 72.522 96.589,72.400 96.438,72.400 96.077 C 72.400 95.805,72.175 95.357,71.900 95.082 C 71.625 94.807,71.400 94.361,71.400 94.091 C 71.400 93.701,71.298 93.600,70.900 93.600 C 70.419 93.600,70.400 93.552,70.400 92.315 C 70.400 91.182,70.459 90.982,70.900 90.636 C 71.175 90.419,71.400 90.059,71.400 89.835 C 71.400 89.565,71.552 89.406,71.850 89.364 C 72.194 89.315,72.315 89.148,72.362 88.655 C 72.400 88.262,72.615 87.860,72.912 87.626 C 73.181 87.415,73.400 87.074,73.400 86.869 C 73.400 86.663,73.603 86.406,73.850 86.297 C 74.127 86.176,74.324 85.890,74.363 85.554 C 74.397 85.254,74.645 84.836,74.913 84.626 C 75.181 84.415,75.400 84.074,75.400 83.869 C 75.400 83.663,75.603 83.406,75.850 83.297 C 76.197 83.145,76.314 82.906,76.361 82.250 C 76.416 81.499,76.480 81.400,76.911 81.400 C 77.299 81.400,77.400 81.297,77.400 80.900 C 77.400 80.625,77.484 80.400,77.586 80.400 C 77.989 80.400,78.400 79.736,78.400 79.086 C 78.400 78.488,78.464 78.400,78.900 78.400 C 79.277 78.400,79.400 78.295,79.400 77.973 C 79.400 77.738,79.625 77.337,79.900 77.082 C 80.218 76.788,80.400 76.402,80.400 76.023 C 80.400 75.558,80.498 75.414,80.850 75.364 C 81.141 75.323,81.323 75.139,81.365 74.844 C 81.400 74.594,81.648 74.170,81.915 73.904 C 82.182 73.637,82.400 73.195,82.400 72.923 C 82.400 72.562,82.522 72.411,82.850 72.364 C 83.194 72.315,83.315 72.148,83.362 71.655 C 83.400 71.262,83.615 70.860,83.912 70.626 C 84.181 70.415,84.400 70.059,84.400 69.835 C 84.400 69.565,84.552 69.406,84.850 69.364 C 85.194 69.315,85.315 69.148,85.362 68.655 C 85.400 68.262,85.615 67.860,85.912 67.626 C 86.181 67.415,86.400 67.074,86.400 66.869 C 86.400 66.663,86.603 66.406,86.850 66.297 C 87.127 66.176,87.324 65.890,87.363 65.554 C 87.397 65.254,87.645 64.836,87.913 64.626 C 88.181 64.415,88.400 64.074,88.400 63.869 C 88.400 63.663,88.603 63.406,88.850 63.297 C 89.127 63.176,89.324 62.890,89.363 62.554 C 89.397 62.254,89.645 61.836,89.913 61.626 C 90.181 61.415,90.400 61.053,90.400 60.821 C 90.400 60.590,90.484 60.400,90.586 60.400 C 90.989 60.400,91.400 59.736,91.400 59.086 C 91.400 58.488,91.464 58.400,91.900 58.400 C 92.277 58.400,92.400 58.295,92.400 57.973 C 92.400 57.738,92.625 57.337,92.900 57.082 C 93.223 56.784,93.400 56.403,93.400 56.010 C 93.400 55.493,93.476 55.400,93.900 55.400 C 94.298 55.400,94.400 55.299,94.400 54.909 C 94.400 54.639,94.625 54.193,94.900 53.918 C 95.175 53.643,95.400 53.195,95.400 52.923 C 95.400 52.562,95.522 52.411,95.850 52.364 C 96.194 52.315,96.315 52.148,96.362 51.655 C 96.400 51.262,96.615 50.860,96.912 50.626 C 97.181 50.415,97.400 50.059,97.400 49.835 C 97.400 49.565,97.552 49.406,97.850 49.364 C 98.192 49.315,98.315 49.148,98.362 48.665 C 98.395 48.316,98.553 47.922,98.712 47.790 C 99.111 47.459,99.061 46.589,98.611 46.050 L 98.236 45.600 89.418 45.600 L 80.600 45.600 80.600 46.100 C 80.600 46.500,80.500 46.600,80.100 46.600 C 79.723 46.600,79.600 46.705,79.600 47.027 C 79.600 47.262,79.375 47.663,79.100 47.918 C 78.782 48.212,78.600 48.598,78.600 48.977 C 78.600 49.442,78.502 49.586,78.150 49.636 C 77.806 49.685,77.685 49.852,77.638 50.345 C 77.600 50.738,77.385 51.140,77.088 51.374 C 76.819 51.585,76.600 51.926,76.600 52.131 C 76.600 52.337,76.398 52.594,76.150 52.703 C 75.873 52.824,75.676 53.110,75.637 53.446 C 75.603 53.746,75.355 54.164,75.087 54.374 C 74.819 54.585,74.600 54.947,74.600 55.179 C 74.600 55.410,74.516 55.600,74.414 55.600 C 74.011 55.600,73.600 56.264,73.600 56.914 C 73.600 57.512,73.536 57.600,73.100 57.600 C 72.702 57.600,72.600 57.701,72.600 58.091 C 72.600 58.361,72.375 58.807,72.100 59.082 C 71.825 59.357,71.600 59.805,71.600 60.077 C 71.600 60.438,71.478 60.589,71.150 60.636 C 70.806 60.685,70.685 60.852,70.638 61.345 C 70.600 61.738,70.385 62.140,70.088 62.374 C 69.819 62.585,69.600 62.926,69.600 63.131 C 69.600 63.337,69.398 63.594,69.150 63.703 C 68.803 63.855,68.686 64.094,68.639 64.750 C 68.584 65.501,68.520 65.600,68.089 65.600 C 67.723 65.600,67.600 65.708,67.600 66.027 C 67.600 66.262,67.375 66.663,67.100 66.918 C 66.782 67.212,66.600 67.598,66.600 67.977 C 66.600 68.442,66.502 68.586,66.150 68.636 C 65.806 68.685,65.685 68.852,65.638 69.345 C 65.600 69.738,65.385 70.140,65.088 70.374 C 64.819 70.585,64.600 70.926,64.600 71.131 C 64.600 71.337,64.398 71.594,64.150 71.703 C 63.873 71.824,63.676 72.110,63.637 72.446 C 63.603 72.746,63.355 73.164,63.087 73.374 C 62.819 73.585,62.600 73.947,62.600 74.179 C 62.600 74.410,62.516 74.600,62.414 74.600 C 62.011 74.600,61.600 75.264,61.600 75.914 C 61.600 76.512,61.536 76.600,61.100 76.600 C 60.702 76.600,60.600 76.701,60.600 77.091 C 60.600 77.493,59.795 78.600,59.502 78.600 C 59.459 78.600,59.395 78.218,59.361 77.750 C 59.314 77.094,59.197 76.855,58.850 76.703 C 58.602 76.594,58.400 76.337,58.400 76.131 C 58.400 75.926,58.181 75.585,57.912 75.374 C 57.615 75.140,57.400 74.738,57.362 74.345 C 57.315 73.852,57.194 73.685,56.850 73.636 C 56.522 73.589,56.400 73.438,56.400 73.077 C 56.400 72.805,56.175 72.357,55.900 72.082 C 55.625 71.807,55.400 71.361,55.400 71.091 C 55.400 70.701,55.298 70.600,54.900 70.600 C 54.464 70.600,54.400 70.512,54.400 69.914 C 54.400 69.264,53.989 68.600,53.586 68.600 C 53.484 68.600,53.400 68.410,53.400 68.179 C 53.400 67.947,53.181 67.585,52.912 67.374 C 52.615 67.140,52.400 66.738,52.362 66.345 C 52.315 65.852,52.194 65.685,51.850 65.636 C 51.522 65.589,51.400 65.438,51.400 65.077 C 51.400 64.805,51.182 64.363,50.915 64.096 C 50.648 63.830,50.400 63.406,50.365 63.156 C 50.323 62.861,50.141 62.677,49.850 62.636 C 49.485 62.584,49.400 62.445,49.400 61.900 C 49.400 61.261,48.986 60.600,48.586 60.600 C 48.484 60.600,48.400 60.410,48.400 60.179 C 48.400 59.947,48.181 59.585,47.913 59.374 C 47.645 59.164,47.397 58.746,47.363 58.446 C 47.324 58.110,47.127 57.824,46.850 57.703 C 46.602 57.594,46.400 57.337,46.400 57.131 C 46.400 56.926,46.181 56.585,45.912 56.374 C 45.615 56.140,45.400 55.738,45.362 55.345 C 45.315 54.852,45.194 54.685,44.850 54.636 C 44.498 54.586,44.400 54.442,44.400 53.977 C 44.400 53.598,44.218 53.212,43.900 52.918 C 43.625 52.663,43.400 52.297,43.400 52.106 C 43.400 51.914,43.181 51.585,42.913 51.374 C 42.645 51.164,42.397 50.746,42.363 50.446 C 42.324 50.110,42.127 49.824,41.850 49.703 C 41.602 49.594,41.400 49.337,41.400 49.131 C 41.400 48.926,41.181 48.585,40.912 48.374 C 40.615 48.140,40.400 47.738,40.362 47.345 C 40.315 46.852,40.194 46.685,39.850 46.636 C 39.524 46.590,39.400 46.438,39.400 46.086 L 39.400 45.600 30.000 45.600 L 20.600 45.600 20.600 46.921 M207.600 46.921 C 207.600 48.083,207.659 48.289,208.088 48.626 C 208.385 48.860,208.600 49.262,208.638 49.655 C 208.685 50.148,208.806 50.315,209.150 50.364 C 209.478 50.411,209.600 50.562,209.600 50.923 C 209.600 51.195,209.825 51.643,210.100 51.918 C 210.375 52.193,210.600 52.639,210.600 52.909 C 210.600 53.299,210.702 53.400,211.100 53.400 C 211.524 53.400,211.600 53.493,211.600 54.010 C 211.600 54.403,211.777 54.784,212.100 55.082 C 212.375 55.337,212.600 55.738,212.600 55.973 C 212.600 56.295,212.723 56.400,213.100 56.400 C 213.536 56.400,213.600 56.488,213.600 57.086 C 213.600 57.736,214.011 58.400,214.414 58.400 C 214.516 58.400,214.600 58.590,214.600 58.821 C 214.600 59.053,214.819 59.415,215.087 59.626 C 215.355 59.836,215.603 60.254,215.637 60.554 C 215.676 60.890,215.873 61.176,216.150 61.297 C 216.398 61.406,216.600 61.663,216.600 61.869 C 216.600 62.074,216.819 62.415,217.088 62.626 C 217.385 62.860,217.600 63.262,217.638 63.655 C 217.685 64.148,217.806 64.315,218.150 64.364 C 218.448 64.406,218.600 64.565,218.600 64.835 C 218.600 65.059,218.819 65.415,219.088 65.626 C 219.385 65.860,219.600 66.262,219.638 66.655 C 219.685 67.148,219.806 67.315,220.150 67.364 C 220.478 67.411,220.600 67.562,220.600 67.923 C 220.600 68.195,220.818 68.637,221.085 68.904 C 221.352 69.170,221.600 69.594,221.635 69.844 C 221.677 70.139,221.859 70.323,222.150 70.364 C 222.502 70.414,222.600 70.558,222.600 71.023 C 222.600 71.402,222.782 71.788,223.100 72.082 C 223.375 72.337,223.600 72.738,223.600 72.973 C 223.600 73.295,223.723 73.400,224.100 73.400 C 224.536 73.400,224.600 73.488,224.600 74.086 C 224.600 74.736,225.011 75.400,225.414 75.400 C 225.516 75.400,225.600 75.590,225.600 75.821 C 225.600 76.053,225.819 76.415,226.087 76.626 C 226.355 76.836,226.603 77.254,226.637 77.554 C 226.676 77.890,226.873 78.176,227.150 78.297 C 227.398 78.406,227.600 78.663,227.600 78.869 C 227.600 79.074,227.819 79.415,228.087 79.626 C 228.355 79.836,228.603 80.254,228.637 80.554 C 228.676 80.890,228.873 81.176,229.150 81.297 C 229.398 81.406,229.600 81.663,229.600 81.869 C 229.600 82.074,229.819 82.415,230.088 82.626 C 230.385 82.860,230.600 83.262,230.638 83.655 C 230.685 84.148,230.806 84.315,231.150 84.364 C 231.448 84.406,231.600 84.565,231.600 84.835 C 231.600 85.059,231.819 85.415,232.088 85.626 C 232.385 85.860,232.600 86.262,232.638 86.655 C 232.685 87.148,232.806 87.315,233.150 87.364 C 233.478 87.411,233.600 87.562,233.600 87.923 C 233.600 88.195,233.825 88.643,234.100 88.918 C 234.375 89.193,234.600 89.639,234.600 89.909 C 234.600 90.299,234.702 90.400,235.100 90.400 C 235.536 90.400,235.600 90.488,235.600 91.086 C 235.600 91.761,236.002 92.381,236.464 92.420 C 236.594 92.431,236.475 92.502,236.200 92.578 C 235.821 92.682,235.685 92.870,235.638 93.353 C 235.600 93.738,235.382 94.143,235.088 94.374 C 234.819 94.585,234.600 94.947,234.600 95.179 C 234.600 95.410,234.516 95.600,234.414 95.600 C 234.011 95.600,233.600 96.264,233.600 96.914 C 233.600 97.512,233.536 97.600,233.100 97.600 C 232.723 97.600,232.600 97.705,232.600 98.027 C 232.600 98.262,232.375 98.663,232.100 98.918 C 231.782 99.212,231.600 99.598,231.600 99.977 C 231.600 100.442,231.502 100.586,231.150 100.636 C 230.806 100.685,230.685 100.852,230.638 101.345 C 230.600 101.738,230.385 102.140,230.088 102.374 C 229.819 102.585,229.600 102.941,229.600 103.165 C 229.600 103.435,229.448 103.594,229.150 103.636 C 228.806 103.685,228.685 103.852,228.638 104.345 C 228.600 104.738,228.385 105.140,228.088 105.374 C 227.819 105.585,227.600 105.926,227.600 106.131 C 227.600 106.337,227.398 106.594,227.150 106.703 C 226.803 106.855,226.686 107.094,226.639 107.750 C 226.584 108.501,226.520 108.600,226.089 108.600 C 225.701 108.600,225.600 108.703,225.600 109.100 C 225.600 109.375,225.516 109.600,225.414 109.600 C 225.014 109.600,224.600 110.261,224.600 110.900 C 224.600 111.445,224.515 111.584,224.150 111.636 C 223.859 111.677,223.677 111.861,223.635 112.156 C 223.600 112.406,223.352 112.830,223.085 113.096 C 222.818 113.363,222.600 113.805,222.600 114.077 C 222.600 114.438,222.478 114.589,222.150 114.636 C 221.806 114.685,221.685 114.852,221.638 115.345 C 221.600 115.738,221.385 116.140,221.088 116.374 C 220.819 116.585,220.600 116.926,220.600 117.131 C 220.600 117.337,220.398 117.594,220.150 117.703 C 219.873 117.824,219.676 118.110,219.637 118.446 C 219.603 118.746,219.355 119.164,219.087 119.374 C 218.819 119.585,218.600 119.947,218.600 120.179 C 218.600 120.410,218.516 120.600,218.414 120.600 C 218.011 120.600,217.600 121.264,217.600 121.914 C 217.600 122.512,217.536 122.600,217.100 122.600 C 216.702 122.600,216.600 122.701,216.600 123.091 C 216.600 123.361,216.375 123.807,216.100 124.082 C 215.825 124.357,215.600 124.805,215.600 125.077 C 215.600 125.438,215.478 125.589,215.150 125.636 C 214.806 125.685,214.685 125.852,214.638 126.345 C 214.600 126.738,214.385 127.140,214.088 127.374 C 213.819 127.585,213.600 127.926,213.600 128.131 C 213.600 128.337,213.398 128.594,213.150 128.703 C 212.873 128.824,212.676 129.110,212.637 129.446 C 212.603 129.746,212.355 130.164,212.087 130.374 C 211.819 130.585,211.600 130.947,211.600 131.179 C 211.600 131.410,211.516 131.600,211.414 131.600 C 211.011 131.600,210.600 132.264,210.600 132.914 C 210.600 133.512,210.536 133.600,210.100 133.600 C 209.723 133.600,209.600 133.705,209.600 134.027 C 209.600 134.262,209.375 134.663,209.100 134.918 C 208.782 135.212,208.600 135.598,208.600 135.977 C 208.600 136.442,208.502 136.586,208.150 136.636 C 207.806 136.685,207.685 136.852,207.638 137.345 C 207.600 137.738,207.385 138.140,207.088 138.374 C 206.819 138.585,206.600 138.941,206.600 139.165 C 206.600 139.435,206.448 139.594,206.150 139.636 C 205.817 139.683,205.683 139.855,205.633 140.300 C 205.597 140.630,205.446 141.035,205.299 141.200 C 205.074 141.452,205.090 141.571,205.398 141.950 L 205.764 142.400 215.082 142.400 L 224.400 142.400 224.400 141.900 C 224.400 141.625,224.484 141.400,224.586 141.400 C 224.989 141.400,225.400 140.736,225.400 140.086 C 225.400 139.488,225.464 139.400,225.900 139.400 C 226.298 139.400,226.400 139.299,226.400 138.909 C 226.400 138.639,226.625 138.193,226.900 137.918 C 227.175 137.643,227.400 137.195,227.400 136.923 C 227.400 136.562,227.522 136.411,227.850 136.364 C 228.194 136.315,228.315 136.148,228.362 135.655 C 228.400 135.262,228.615 134.860,228.912 134.626 C 229.181 134.415,229.400 134.148,229.400 134.032 C 229.400 133.916,229.623 133.580,229.896 133.286 C 230.168 132.992,230.446 132.456,230.514 132.094 C 230.592 131.682,230.780 131.400,231.019 131.337 C 231.228 131.282,231.400 131.063,231.400 130.850 C 231.400 130.636,231.572 130.307,231.782 130.117 C 231.992 129.927,232.280 129.485,232.422 129.136 C 232.564 128.786,232.835 128.387,233.024 128.250 C 233.213 128.112,233.429 127.725,233.502 127.390 C 233.576 127.055,233.808 126.674,234.018 126.542 C 234.228 126.411,234.400 126.162,234.400 125.988 C 234.400 125.814,234.620 125.481,234.889 125.247 C 235.158 125.013,235.436 124.510,235.508 124.129 C 235.587 123.709,235.777 123.400,235.992 123.344 C 236.207 123.288,236.397 122.980,236.476 122.559 C 236.547 122.179,236.829 121.673,237.103 121.435 C 237.376 121.197,237.600 120.889,237.600 120.749 C 237.600 120.610,237.772 120.389,237.982 120.258 C 238.192 120.126,238.425 119.740,238.500 119.400 C 238.575 119.060,238.808 118.674,239.018 118.542 C 239.228 118.411,239.400 118.159,239.400 117.981 C 239.400 117.804,239.629 117.411,239.909 117.109 C 240.189 116.807,240.469 116.307,240.530 115.998 C 240.592 115.688,240.801 115.394,240.994 115.344 C 241.211 115.287,241.398 114.972,241.483 114.521 C 241.558 114.120,241.795 113.681,242.010 113.547 C 242.224 113.413,242.400 113.190,242.400 113.051 C 242.400 112.911,242.627 112.600,242.904 112.359 C 243.204 112.098,243.457 111.614,243.530 111.160 C 243.620 110.594,243.747 110.400,244.026 110.400 C 244.275 110.400,244.400 110.257,244.400 109.973 C 244.400 109.738,244.627 109.336,244.904 109.079 C 245.181 108.822,245.461 108.347,245.525 108.024 C 245.594 107.679,245.800 107.394,246.021 107.336 C 246.248 107.277,246.408 107.050,246.420 106.769 C 246.440 106.302,246.440 106.302,246.578 106.800 C 246.663 107.107,246.887 107.325,247.158 107.364 C 247.514 107.415,247.600 107.559,247.600 108.100 C 247.600 108.739,248.014 109.400,248.414 109.400 C 248.516 109.400,248.600 109.590,248.600 109.821 C 248.600 110.053,248.819 110.415,249.088 110.626 C 249.385 110.860,249.600 111.262,249.638 111.655 C 249.685 112.148,249.806 112.315,250.150 112.364 C 250.502 112.414,250.600 112.558,250.600 113.023 C 250.600 113.402,250.782 113.788,251.100 114.082 C 251.375 114.337,251.600 114.703,251.600 114.894 C 251.600 115.086,251.819 115.415,252.087 115.626 C 252.355 115.836,252.603 116.254,252.637 116.554 C 252.676 116.890,252.873 117.176,253.150 117.297 C 253.430 117.420,253.600 117.670,253.600 117.957 C 253.600 118.210,253.825 118.643,254.100 118.918 C 254.375 119.193,254.600 119.639,254.600 119.909 C 254.600 120.296,254.703 120.400,255.089 120.400 C 255.520 120.400,255.584 120.499,255.639 121.250 C 255.686 121.906,255.803 122.145,256.150 122.297 C 256.397 122.406,256.600 122.663,256.600 122.869 C 256.600 123.074,256.819 123.415,257.088 123.626 C 257.385 123.860,257.600 124.262,257.638 124.655 C 257.685 125.148,257.806 125.315,258.150 125.364 C 258.515 125.416,258.600 125.555,258.600 126.100 C 258.600 126.739,259.014 127.400,259.414 127.400 C 259.516 127.400,259.600 127.590,259.600 127.821 C 259.600 128.053,259.819 128.415,260.088 128.626 C 260.385 128.860,260.600 129.262,260.638 129.655 C 260.685 130.148,260.806 130.315,261.150 130.364 C 261.478 130.411,261.600 130.562,261.600 130.923 C 261.600 131.195,261.825 131.643,262.100 131.918 C 262.375 132.193,262.600 132.639,262.600 132.909 C 262.600 133.296,262.703 133.400,263.089 133.400 C 263.520 133.400,263.584 133.499,263.639 134.250 C 263.686 134.906,263.803 135.145,264.150 135.297 C 264.397 135.406,264.600 135.663,264.600 135.869 C 264.600 136.074,264.819 136.415,265.088 136.626 C 265.385 136.860,265.600 137.262,265.638 137.655 C 265.685 138.148,265.806 138.315,266.150 138.364 C 266.515 138.416,266.600 138.555,266.600 139.100 C 266.600 139.739,267.014 140.400,267.414 140.400 C 267.516 140.400,267.600 140.573,267.600 140.785 C 267.600 140.996,267.878 141.447,268.217 141.787 L 268.835 142.404 278.567 142.352 L 288.300 142.300 288.300 141.500 C 288.300 140.823,288.231 140.690,287.850 140.636 C 287.552 140.594,287.400 140.435,287.400 140.165 C 287.400 139.941,287.181 139.585,286.912 139.374 C 286.615 139.140,286.400 138.738,286.362 138.345 C 286.315 137.852,286.194 137.685,285.850 137.636 C 285.498 137.586,285.400 137.442,285.400 136.977 C 285.400 136.598,285.218 136.212,284.900 135.918 C 284.625 135.663,284.400 135.262,284.400 135.027 C 284.400 134.708,284.277 134.600,283.911 134.600 C 283.480 134.600,283.416 134.501,283.361 133.750 C 283.314 133.094,283.197 132.855,282.850 132.703 C 282.603 132.594,282.400 132.337,282.400 132.131 C 282.400 131.926,282.181 131.585,281.912 131.374 C 281.615 131.140,281.400 130.738,281.362 130.345 C 281.315 129.852,281.194 129.685,280.850 129.636 C 280.522 129.589,280.400 129.438,280.400 129.077 C 280.400 128.805,280.182 128.363,279.915 128.096 C 279.648 127.830,279.400 127.406,279.365 127.156 C 279.323 126.861,279.141 126.677,278.850 126.636 C 278.485 126.584,278.400 126.445,278.400 125.900 C 278.400 125.261,277.986 124.600,277.586 124.600 C 277.484 124.600,277.400 124.375,277.400 124.100 C 277.400 123.703,277.299 123.600,276.911 123.600 C 276.480 123.600,276.416 123.501,276.361 122.750 C 276.314 122.094,276.197 121.855,275.850 121.703 C 275.603 121.594,275.400 121.337,275.400 121.131 C 275.400 120.926,275.181 120.585,274.912 120.374 C 274.615 120.140,274.400 119.738,274.362 119.345 C 274.315 118.852,274.194 118.685,273.850 118.636 C 273.522 118.589,273.400 118.438,273.400 118.077 C 273.400 117.805,273.182 117.363,272.915 117.096 C 272.648 116.830,272.400 116.406,272.365 116.156 C 272.323 115.861,272.141 115.677,271.850 115.636 C 271.485 115.584,271.400 115.445,271.400 114.900 C 271.400 114.261,270.986 113.600,270.586 113.600 C 270.484 113.600,270.400 113.410,270.400 113.179 C 270.400 112.947,270.181 112.585,269.913 112.374 C 269.645 112.164,269.397 111.746,269.363 111.446 C 269.324 111.110,269.127 110.824,268.850 110.703 C 268.603 110.594,268.400 110.337,268.400 110.131 C 268.400 109.926,268.181 109.585,267.912 109.374 C 267.615 109.140,267.400 108.738,267.362 108.345 C 267.315 107.852,267.194 107.685,266.850 107.636 C 266.522 107.589,266.400 107.438,266.400 107.077 C 266.400 106.805,266.175 106.357,265.900 106.082 C 265.625 105.807,265.400 105.361,265.400 105.091 C 265.400 104.701,265.298 104.600,264.900 104.600 C 264.464 104.600,264.400 104.512,264.400 103.914 C 264.400 103.264,263.989 102.600,263.586 102.600 C 263.484 102.600,263.400 102.410,263.400 102.179 C 263.400 101.947,263.181 101.585,262.913 101.374 C 262.645 101.164,262.397 100.746,262.363 100.446 C 262.324 100.110,262.127 99.824,261.850 99.703 C 261.603 99.594,261.400 99.337,261.400 99.131 C 261.400 98.926,261.181 98.585,260.912 98.374 C 260.615 98.140,260.400 97.738,260.362 97.345 C 260.315 96.852,260.194 96.685,259.850 96.636 C 259.522 96.589,259.400 96.438,259.400 96.077 C 259.400 95.805,259.175 95.357,258.900 95.082 C 258.625 94.807,258.400 94.361,258.400 94.091 C 258.400 93.701,258.298 93.600,257.900 93.600 C 257.419 93.600,257.400 93.552,257.400 92.315 C 257.400 91.182,257.459 90.982,257.900 90.636 C 258.175 90.419,258.400 90.059,258.400 89.835 C 258.400 89.565,258.552 89.406,258.850 89.364 C 259.194 89.315,259.315 89.148,259.362 88.655 C 259.400 88.262,259.615 87.860,259.912 87.626 C 260.181 87.415,260.400 87.074,260.400 86.869 C 260.400 86.663,260.603 86.406,260.850 86.297 C 261.127 86.176,261.324 85.890,261.363 85.554 C 261.397 85.254,261.645 84.836,261.913 84.626 C 262.181 84.415,262.400 84.074,262.400 83.869 C 262.400 83.663,262.603 83.406,262.850 83.297 C 263.197 83.145,263.314 82.906,263.361 82.250 C 263.416 81.499,263.480 81.400,263.911 81.400 C 264.299 81.400,264.400 81.297,264.400 80.900 C 264.400 80.625,264.484 80.400,264.586 80.400 C 264.989 80.400,265.400 79.736,265.400 79.086 C 265.400 78.488,265.464 78.400,265.900 78.400 C 266.277 78.400,266.400 78.295,266.400 77.973 C 266.400 77.738,266.625 77.337,266.900 77.082 C 267.218 76.788,267.400 76.402,267.400 76.023 C 267.400 75.558,267.498 75.414,267.850 75.364 C 268.141 75.323,268.323 75.139,268.365 74.844 C 268.400 74.594,268.648 74.170,268.915 73.904 C 269.182 73.637,269.400 73.195,269.400 72.923 C 269.400 72.562,269.522 72.411,269.850 72.364 C 270.194 72.315,270.315 72.148,270.362 71.655 C 270.400 71.262,270.615 70.860,270.912 70.626 C 271.181 70.415,271.400 70.059,271.400 69.835 C 271.400 69.565,271.552 69.406,271.850 69.364 C 272.194 69.315,272.315 69.148,272.362 68.655 C 272.400 68.262,272.615 67.860,272.912 67.626 C 273.181 67.415,273.400 67.074,273.400 66.869 C 273.400 66.663,273.603 66.406,273.850 66.297 C 274.127 66.176,274.324 65.890,274.363 65.554 C 274.397 65.254,274.645 64.836,274.913 64.626 C 275.181 64.415,275.400 64.074,275.400 63.869 C 275.400 63.663,275.603 63.406,275.850 63.297 C 276.127 63.176,276.324 62.890,276.363 62.554 C 276.397 62.254,276.645 61.836,276.913 61.626 C 277.181 61.415,277.400 61.053,277.400 60.821 C 277.400 60.590,277.484 60.400,277.586 60.400 C 277.989 60.400,278.400 59.736,278.400 59.086 C 278.400 58.488,278.464 58.400,278.900 58.400 C 279.277 58.400,279.400 58.295,279.400 57.973 C 279.400 57.738,279.625 57.337,279.900 57.082 C 280.223 56.784,280.400 56.403,280.400 56.010 C 280.400 55.493,280.476 55.400,280.900 55.400 C 281.298 55.400,281.400 55.299,281.400 54.909 C 281.400 54.639,281.625 54.193,281.900 53.918 C 282.175 53.643,282.400 53.195,282.400 52.923 C 282.400 52.562,282.522 52.411,282.850 52.364 C 283.194 52.315,283.315 52.148,283.362 51.655 C 283.400 51.262,283.615 50.860,283.912 50.626 C 284.181 50.415,284.400 50.059,284.400 49.835 C 284.400 49.565,284.552 49.406,284.850 49.364 C 285.192 49.315,285.315 49.148,285.362 48.665 C 285.395 48.316,285.553 47.922,285.712 47.790 C 286.111 47.459,286.061 46.589,285.611 46.050 L 285.236 45.600 276.418 45.600 L 267.600 45.600 267.600 46.100 C 267.600 46.500,267.500 46.600,267.100 46.600 C 266.723 46.600,266.600 46.705,266.600 47.027 C 266.600 47.262,266.375 47.663,266.100 47.918 C 265.782 48.212,265.600 48.598,265.600 48.977 C 265.600 49.442,265.502 49.586,265.150 49.636 C 264.806 49.685,264.685 49.852,264.638 50.345 C 264.600 50.738,264.385 51.140,264.088 51.374 C 263.819 51.585,263.600 51.926,263.600 52.131 C 263.600 52.337,263.397 52.594,263.150 52.703 C 262.873 52.824,262.676 53.110,262.637 53.446 C 262.603 53.746,262.355 54.164,262.087 54.374 C 261.819 54.585,261.600 54.947,261.600 55.179 C 261.600 55.410,261.516 55.600,261.414 55.600 C 261.011 55.600,260.600 56.264,260.600 56.914 C 260.600 57.512,260.536 57.600,260.100 57.600 C 259.702 57.600,259.600 57.701,259.600 58.091 C 259.600 58.361,259.375 58.807,259.100 59.082 C 258.825 59.357,258.600 59.805,258.600 60.077 C 258.600 60.438,258.478 60.589,258.150 60.636 C 257.806 60.685,257.685 60.852,257.638 61.345 C 257.600 61.738,257.385 62.140,257.088 62.374 C 256.819 62.585,256.600 62.926,256.600 63.131 C 256.600 63.337,256.397 63.594,256.150 63.703 C 255.803 63.855,255.686 64.094,255.639 64.750 C 255.584 65.501,255.520 65.600,255.089 65.600 C 254.723 65.600,254.600 65.708,254.600 66.027 C 254.600 66.262,254.375 66.663,254.100 66.918 C 253.782 67.212,253.600 67.598,253.600 67.977 C 253.600 68.442,253.502 68.586,253.150 68.636 C 252.806 68.685,252.685 68.852,252.638 69.345 C 252.600 69.738,252.385 70.140,252.088 70.374 C 251.819 70.585,251.600 70.926,251.600 71.131 C 251.600 71.337,251.398 71.594,251.150 71.703 C 250.873 71.824,250.676 72.110,250.637 72.446 C 250.603 72.746,250.355 73.164,250.087 73.374 C 249.819 73.585,249.600 73.947,249.600 74.179 C 249.600 74.410,249.516 74.600,249.414 74.600 C 249.011 74.600,248.600 75.264,248.600 75.914 C 248.600 76.512,248.536 76.600,248.100 76.600 C 247.702 76.600,247.600 76.701,247.600 77.091 C 247.600 77.361,247.381 77.801,247.114 78.068 L 246.627 78.554 246.500 77.802 C 246.428 77.373,246.164 76.867,245.887 76.626 C 245.619 76.393,245.400 76.089,245.400 75.949 C 245.400 75.810,245.224 75.587,245.010 75.453 C 244.795 75.319,244.558 74.880,244.483 74.479 C 244.401 74.042,244.210 73.713,244.008 73.660 C 243.822 73.611,243.563 73.276,243.432 72.915 C 243.302 72.553,243.016 72.095,242.797 71.898 C 242.579 71.700,242.400 71.327,242.400 71.069 C 242.400 70.743,242.285 70.600,242.022 70.600 C 241.748 70.600,241.608 70.406,241.511 69.889 C 241.438 69.498,241.158 68.987,240.889 68.753 C 240.620 68.519,240.400 68.186,240.400 68.012 C 240.400 67.838,240.224 67.587,240.010 67.453 C 239.795 67.319,239.558 66.880,239.483 66.479 C 239.401 66.042,239.210 65.713,239.008 65.660 C 238.822 65.611,238.563 65.276,238.432 64.915 C 238.302 64.553,238.016 64.095,237.797 63.898 C 237.579 63.700,237.400 63.364,237.400 63.150 C 237.400 62.937,237.228 62.718,237.019 62.663 C 236.774 62.599,236.591 62.315,236.508 61.871 C 236.436 61.490,236.158 60.987,235.889 60.753 C 235.620 60.519,235.400 60.186,235.400 60.012 C 235.400 59.838,235.228 59.589,235.018 59.458 C 234.808 59.326,234.578 58.957,234.508 58.637 C 234.438 58.317,234.160 57.863,233.890 57.629 C 233.621 57.394,233.400 57.089,233.400 56.949 C 233.400 56.810,233.224 56.587,233.010 56.453 C 232.795 56.319,232.558 55.880,232.483 55.479 C 232.398 55.028,232.211 54.713,231.994 54.656 C 231.801 54.606,231.592 54.312,231.530 54.002 C 231.469 53.693,231.189 53.193,230.909 52.891 C 230.629 52.589,230.400 52.207,230.400 52.043 C 230.400 51.879,230.246 51.632,230.059 51.494 C 229.871 51.357,229.617 50.942,229.495 50.572 C 229.372 50.203,229.076 49.811,228.836 49.703 C 228.596 49.594,228.400 49.337,228.400 49.131 C 228.400 48.926,228.181 48.585,227.912 48.374 C 227.615 48.140,227.400 47.738,227.362 47.345 C 227.315 46.852,227.194 46.685,226.850 46.636 C 226.524 46.590,226.400 46.438,226.400 46.086 L 226.400 45.600 217.000 45.600 L 207.600 45.600 207.600 46.921 " stroke="none" fill="#fc040c" fill-rule="evenodd"></path><path id="path2" d="" stroke="none" fill="#fcbc100" fill-rule="evenodd"></path><path id="path3" d="" stroke="none" fill="#fcbc100" fill-rule="evenodd"></path><path id="path4" d="" stroke="none" fill="#fcbc100" fill-rule="evenodd"></path></g></svg>